<?xml version="1.0" encoding="UTF-8" standalone="no"?>
<svg
   id="svg"
   version="1.1"
   width="400"
   height="400"
   viewBox="0, 0, 400,400"
   sodipodi:docname="image2vector.svg"
   inkscape:version="1.3.2 (091e20e, 2023-11-25)"
   xmlns:inkscape="http://www.inkscape.org/namespaces/inkscape"
   xmlns:sodipodi="http://sodipodi.sourceforge.net/DTD/sodipodi-0.dtd"
   xmlns="http://www.w3.org/2000/svg"
   xmlns:svg="http://www.w3.org/2000/svg">
  <defs
     id="defs1" />
  <sodipodi:namedview
     id="namedview1"
     pagecolor="#ffffff"
     bordercolor="#000000"
     borderopacity="0.25"
     inkscape:showpageshadow="2"
     inkscape:pageopacity="0.0"
     inkscape:pagecheckerboard="0"
     inkscape:deskcolor="#d1d1d1"
     inkscape:zoom="1.2888096"
     inkscape:cx="290.57822"
     inkscape:cy="200.96064"
     inkscape:window-width="1440"
     inkscape:window-height="847"
     inkscape:window-x="0"
     inkscape:window-y="25"
     inkscape:window-maximized="1"
     inkscape:current-layer="svgg" />
  <g
     id="svgg">
    <path
       id="path0"
       d="M240.959 147.900 C 240.840 148.285,240.574 148.870,240.369 149.200 C 239.939 149.890,239.780 150.220,239.213 151.600 C 238.752 152.721,238.554 153.055,236.011 157.000 C 235.018 158.540,233.980 160.038,233.703 160.329 C 233.426 160.619,233.199 160.979,233.198 161.129 C 233.197 161.367,232.291 162.416,228.647 166.400 C 226.431 168.823,222.317 172.387,219.400 174.412 C 218.300 175.175,217.339 175.939,217.263 176.110 C 217.188 176.280,216.558 176.685,215.863 177.009 C 215.169 177.333,214.060 177.954,213.400 178.389 C 211.135 179.882,209.107 180.957,205.800 182.417 C 204.920 182.805,203.370 183.501,202.356 183.962 C 201.342 184.423,200.167 184.800,199.745 184.800 C 199.323 184.800,198.623 185.047,198.189 185.350 C 197.755 185.652,196.590 186.022,195.600 186.171 C 194.610 186.320,193.170 186.695,192.400 187.004 C 191.630 187.313,189.290 187.758,187.200 187.993 C 185.110 188.229,181.804 188.614,179.854 188.850 C 177.233 189.167,175.354 189.155,172.654 188.803 C 170.644 188.542,167.200 188.105,165.000 187.833 C 162.800 187.561,160.640 187.150,160.200 186.920 C 159.760 186.690,158.506 186.372,157.414 186.214 C 156.322 186.055,155.067 185.672,154.625 185.363 C 154.183 185.053,153.450 184.800,152.996 184.800 C 152.541 184.800,151.463 184.440,150.600 184.000 C 149.737 183.560,148.802 183.200,148.522 183.200 C 147.963 183.200,140.321 179.623,140.000 179.211 C 139.890 179.070,139.215 178.718,138.500 178.429 C 137.785 178.140,137.200 177.748,137.200 177.559 C 137.200 177.370,136.763 177.106,136.229 176.972 C 135.696 176.838,134.948 176.384,134.567 175.964 C 134.187 175.544,133.674 175.200,133.427 175.200 C 133.180 175.200,132.680 174.885,132.317 174.500 C 131.954 174.115,131.367 173.562,131.013 173.270 C 130.660 172.979,129.314 171.861,128.022 170.786 C 125.025 168.292,125.200 167.596,125.200 182.025 L 125.200 193.985 124.100 194.204 C 123.495 194.324,122.460 194.615,121.800 194.851 C 121.140 195.086,119.970 195.421,119.200 195.596 C 117.407 196.003,114.730 197.424,114.296 198.200 C 114.111 198.530,113.541 198.800,113.028 198.800 C 112.074 198.800,110.020 200.970,108.675 203.400 C 102.318 214.885,109.592 229.369,122.600 231.129 L 124.600 231.400 125.031 237.800 C 125.267 241.320,125.670 245.190,125.924 246.400 C 127.469 253.740,128.244 256.665,129.015 258.062 C 129.337 258.646,129.600 259.332,129.600 259.586 C 129.600 260.046,131.166 263.684,132.188 265.600 C 132.481 266.150,133.152 267.410,133.679 268.400 C 139.437 279.230,153.488 292.981,162.800 296.900 C 165.147 297.888,165.787 298.877,165.029 300.344 C 164.683 301.013,164.398 301.884,164.395 302.280 C 164.393 302.676,164.035 304.440,163.600 306.200 C 162.581 310.324,162.581 314.913,163.600 318.800 C 164.032 320.450,164.389 322.206,164.393 322.701 C 164.397 323.197,164.760 324.275,165.200 325.096 C 165.640 325.916,166.000 326.800,166.000 327.059 C 166.000 327.851,169.225 333.280,170.954 335.400 C 176.176 341.802,184.472 347.243,190.454 348.191 C 191.414 348.343,193.088 348.722,194.173 349.034 C 196.715 349.764,203.285 349.764,205.827 349.034 C 206.912 348.722,208.586 348.343,209.546 348.191 C 215.528 347.243,223.824 341.802,229.046 335.400 C 230.775 333.280,234.000 327.851,234.000 327.059 C 234.000 326.800,234.360 325.916,234.800 325.096 C 235.240 324.275,235.602 323.287,235.605 322.901 C 235.607 322.516,235.965 320.760,236.400 319.000 C 236.855 317.159,237.191 314.441,237.191 312.600 C 237.191 310.759,236.855 308.041,236.400 306.200 C 235.965 304.440,235.607 302.676,235.605 302.280 C 235.602 301.884,235.339 301.056,235.021 300.440 C 234.281 299.010,235.009 297.806,237.152 296.911 C 245.070 293.603,257.516 282.258,263.789 272.633 C 266.510 268.458,270.400 260.800,270.400 259.618 C 270.400 259.346,270.663 258.646,270.985 258.062 C 271.559 257.022,272.445 253.991,273.226 250.400 C 274.347 245.247,274.768 242.105,274.991 237.232 C 275.274 231.053,275.225 231.200,276.976 231.200 C 285.292 231.200,293.600 221.894,293.600 212.579 C 293.600 206.552,289.853 198.800,286.939 198.800 C 286.409 198.800,285.877 198.545,285.757 198.232 C 285.375 197.235,280.081 195.075,275.919 194.217 L 274.837 193.994 274.719 183.435 L 274.600 172.876 273.479 171.838 C 272.863 171.267,272.272 170.800,272.167 170.800 C 272.005 170.800,262.648 163.464,260.814 161.900 C 259.309 160.616,255.836 157.999,255.630 157.994 C 255.504 157.991,254.642 157.316,253.716 156.494 C 252.789 155.672,251.619 154.680,251.116 154.289 C 250.612 153.898,248.355 152.143,246.101 150.389 C 241.758 147.011,241.302 146.790,240.959 147.900 M169.200 200.189 C 169.750 200.506,170.560 200.943,171.000 201.159 C 179.356 205.273,175.202 218.992,165.600 218.992 C 155.998 218.992,151.844 205.273,160.200 201.159 C 160.640 200.943,161.450 200.506,162.000 200.189 C 162.591 199.848,164.064 199.612,165.600 199.612 C 167.136 199.612,168.609 199.848,169.200 200.189 M238.000 200.189 C 238.550 200.506,239.360 200.943,239.800 201.159 C 248.156 205.273,244.002 218.992,234.400 218.992 C 224.798 218.992,220.644 205.273,229.000 201.159 C 229.440 200.943,230.250 200.506,230.800 200.189 C 231.391 199.848,232.864 199.612,234.400 199.612 C 235.936 199.612,237.409 199.848,238.000 200.189 "
       stroke="none"
       fill="#fad2a6"
       fill-rule="evenodd" />
    <path
       id="path1"
       d="M174.400 0.400 C 174.400 0.644,172.544 0.800,169.633 0.800 C 164.543 0.800,163.600 0.963,163.600 1.843 C 163.600 2.276,162.822 2.401,160.100 2.406 C 156.696 2.412,155.391 2.718,155.666 3.445 C 155.740 3.640,154.386 3.853,152.658 3.918 C 149.930 4.020,149.489 4.138,149.311 4.818 C 149.133 5.500,148.749 5.600,146.316 5.600 C 143.862 5.600,143.500 5.696,143.316 6.400 C 143.137 7.086,142.770 7.200,140.753 7.200 C 138.667 7.200,138.400 7.291,138.400 8.000 C 138.400 8.711,138.133 8.800,136.000 8.800 C 134.133 8.800,133.600 8.933,133.600 9.400 C 133.600 9.742,133.213 10.020,132.700 10.046 C 132.205 10.072,131.620 10.134,131.400 10.185 C 131.180 10.236,130.595 10.306,130.100 10.339 C 129.594 10.373,129.200 10.662,129.200 11.000 C 129.200 11.427,128.766 11.600,127.696 11.600 C 126.626 11.600,126.049 11.830,125.693 12.400 C 125.316 13.004,124.760 13.200,123.424 13.200 C 122.005 13.200,121.604 13.359,121.400 14.000 C 121.212 14.591,120.795 14.800,119.800 14.800 C 118.805 14.800,118.388 15.009,118.200 15.600 C 118.009 16.203,117.595 16.400,116.517 16.400 C 115.635 16.400,114.898 16.660,114.592 17.079 C 114.319 17.452,113.309 17.952,112.348 18.191 C 111.354 18.438,110.643 18.835,110.700 19.112 C 110.761 19.410,110.332 19.600,109.600 19.600 C 108.933 19.600,108.044 19.956,107.600 20.400 C 107.160 20.840,106.551 21.200,106.247 21.200 C 105.942 21.200,105.599 21.560,105.484 22.000 C 105.324 22.613,104.938 22.800,103.837 22.800 C 102.667 22.800,102.400 22.948,102.400 23.600 C 102.400 24.267,102.133 24.400,100.800 24.400 C 99.694 24.400,99.200 24.573,99.200 24.961 C 99.200 25.548,97.040 26.507,96.634 26.101 C 96.505 25.972,96.400 26.167,96.400 26.533 C 96.400 26.903,96.086 27.200,95.696 27.200 C 95.309 27.200,94.768 27.560,94.493 28.000 C 94.203 28.465,93.560 28.800,92.959 28.800 C 92.262 28.800,91.857 29.060,91.716 29.600 C 91.601 30.040,91.202 30.400,90.830 30.400 C 90.458 30.400,89.804 30.683,89.376 31.030 C 88.949 31.376,88.853 31.528,89.162 31.368 C 89.531 31.176,89.626 31.235,89.438 31.538 C 89.281 31.792,88.623 32.000,87.976 32.000 C 87.067 32.000,86.800 32.181,86.800 32.800 C 86.800 33.333,86.533 33.600,86.000 33.600 C 85.560 33.600,84.840 33.960,84.400 34.400 C 83.960 34.840,83.313 35.200,82.963 35.200 C 82.612 35.200,82.231 35.560,82.116 36.000 C 82.000 36.443,81.570 36.800,81.153 36.800 C 80.675 36.800,80.400 37.083,80.400 37.575 C 80.400 38.156,80.076 38.381,79.100 38.475 C 78.267 38.555,77.800 38.815,77.800 39.200 C 77.800 39.530,77.395 39.858,76.900 39.928 C 76.322 40.010,76.000 40.332,76.000 40.828 C 76.000 41.333,75.724 41.600,75.200 41.600 C 74.760 41.600,74.400 41.850,74.400 42.157 C 74.400 42.463,73.955 42.825,73.411 42.961 C 72.867 43.098,72.047 43.613,71.588 44.105 C 71.129 44.597,70.617 45.000,70.449 45.000 C 70.280 45.000,69.828 45.315,69.443 45.700 C 69.058 46.085,68.565 46.400,68.348 46.400 C 68.131 46.400,68.064 46.580,68.200 46.801 C 68.337 47.021,67.987 47.377,67.424 47.591 C 66.861 47.805,66.400 48.255,66.400 48.590 C 66.400 48.933,66.050 49.200,65.600 49.200 C 65.067 49.200,64.800 49.467,64.800 50.000 C 64.800 50.533,64.533 50.800,64.000 50.800 C 63.467 50.800,63.200 51.067,63.200 51.600 C 63.200 52.133,62.933 52.400,62.400 52.400 C 61.867 52.400,61.600 52.667,61.600 53.200 C 61.600 53.640,61.342 54.000,61.027 54.000 C 60.712 54.000,60.340 54.360,60.200 54.800 C 60.060 55.240,59.688 55.600,59.373 55.600 C 59.058 55.600,58.800 55.960,58.800 56.400 C 58.800 56.933,58.533 57.200,58.000 57.200 C 57.467 57.200,57.200 57.467,57.200 58.000 C 57.200 58.533,56.933 58.800,56.400 58.800 C 55.960 58.800,55.600 59.049,55.600 59.353 C 55.600 59.658,55.240 60.001,54.800 60.116 C 54.360 60.231,54.000 60.612,54.000 60.963 C 54.000 61.333,53.665 61.600,53.200 61.600 C 52.667 61.600,52.400 61.867,52.400 62.400 C 52.400 62.933,52.133 63.200,51.600 63.200 C 51.067 63.200,50.800 63.467,50.800 64.000 C 50.800 64.533,50.533 64.800,50.000 64.800 C 49.483 64.800,49.200 65.067,49.200 65.553 C 49.200 65.970,48.843 66.400,48.400 66.516 C 47.960 66.631,47.600 67.012,47.600 67.363 C 47.600 67.713,47.359 68.000,47.064 68.000 C 46.770 68.000,46.323 68.450,46.073 69.000 C 45.822 69.550,45.448 70.000,45.240 70.000 C 45.033 70.000,44.745 70.541,44.599 71.203 C 44.454 71.865,43.976 72.599,43.536 72.834 C 43.084 73.076,42.833 73.508,42.956 73.831 C 43.100 74.204,42.904 74.400,42.387 74.400 C 41.867 74.400,41.600 74.671,41.600 75.200 C 41.600 75.733,41.333 76.000,40.800 76.000 C 40.283 76.000,40.000 76.267,40.000 76.753 C 40.000 77.170,39.643 77.600,39.200 77.716 C 38.626 77.866,38.400 78.262,38.400 79.116 C 38.400 79.970,38.174 80.366,37.600 80.516 C 37.160 80.631,36.800 80.991,36.800 81.316 C 36.800 81.641,36.440 82.001,36.000 82.116 C 35.547 82.234,35.200 82.662,35.200 83.101 C 35.200 83.527,34.840 84.202,34.400 84.600 C 33.960 84.998,33.600 85.656,33.600 86.062 C 33.600 86.533,33.311 86.800,32.800 86.800 C 32.273 86.800,32.000 87.067,32.000 87.580 C 32.000 88.009,31.685 88.544,31.300 88.768 C 30.746 89.091,30.725 89.181,31.200 89.200 C 31.675 89.219,31.654 89.309,31.100 89.632 C 30.715 89.856,30.400 90.370,30.400 90.773 C 30.400 91.177,30.040 91.601,29.600 91.716 C 29.060 91.857,28.800 92.262,28.800 92.959 C 28.800 93.560,28.465 94.203,28.000 94.493 C 27.560 94.768,27.200 95.309,27.200 95.696 C 27.200 96.086,26.903 96.400,26.533 96.400 C 26.167 96.400,25.972 96.505,26.101 96.634 C 26.507 97.040,25.548 99.200,24.961 99.200 C 24.573 99.200,24.400 99.694,24.400 100.800 C 24.400 102.133,24.267 102.400,23.600 102.400 C 22.948 102.400,22.800 102.667,22.800 103.837 C 22.800 104.938,22.613 105.324,22.000 105.484 C 21.560 105.599,21.200 105.942,21.200 106.247 C 21.200 106.551,20.840 107.160,20.400 107.600 C 19.960 108.040,19.600 108.822,19.600 109.338 C 19.600 109.854,19.240 110.602,18.800 111.000 C 18.358 111.400,18.000 112.232,18.000 112.859 C 18.000 113.560,17.695 114.184,17.200 114.493 C 16.638 114.844,16.400 115.426,16.400 116.450 C 16.400 117.570,16.215 117.955,15.600 118.116 C 15.001 118.273,14.800 118.662,14.800 119.666 C 14.800 120.574,14.542 121.169,14.000 121.507 C 13.418 121.871,13.200 122.440,13.200 123.600 C 13.200 124.760,12.982 125.329,12.400 125.693 C 11.870 126.024,11.600 126.626,11.600 127.476 C 11.600 128.196,11.339 128.906,11.006 129.093 C 10.478 129.388,10.107 130.833,10.027 132.900 C 10.012 133.285,9.730 133.600,9.400 133.600 C 8.933 133.600,8.800 134.133,8.800 136.000 C 8.800 138.133,8.711 138.400,8.000 138.400 C 7.293 138.400,7.200 138.667,7.200 140.704 C 7.200 142.574,7.050 143.102,6.400 143.507 C 5.726 143.928,5.600 144.440,5.600 146.759 C 5.600 149.135,5.504 149.504,4.900 149.456 C 4.299 149.408,4.184 149.831,4.084 152.458 C 3.983 155.120,3.865 155.542,3.172 155.723 C 2.735 155.838,2.404 156.082,2.436 156.266 C 2.764 158.128,2.321 163.600,1.843 163.600 C 0.963 163.600,0.800 164.543,0.800 169.633 C 0.800 172.544,0.644 174.400,0.400 174.400 C 0.138 174.400,0.000 183.200,0.000 200.000 C 0.000 216.800,0.138 225.600,0.400 225.600 C 0.646 225.600,0.800 227.612,0.800 230.837 C 0.800 235.738,0.851 236.088,1.600 236.284 C 2.320 236.472,2.400 236.830,2.400 239.875 C 2.400 243.048,2.985 244.882,3.752 244.114 C 3.889 243.978,4.002 245.022,4.005 246.433 C 4.012 249.544,4.312 250.800,5.047 250.800 C 5.455 250.800,5.600 251.418,5.600 253.167 C 5.600 255.897,5.859 256.800,6.643 256.800 C 7.057 256.800,7.200 257.415,7.200 259.200 C 7.200 261.333,7.289 261.600,8.000 261.600 C 8.711 261.600,8.800 261.867,8.800 264.000 C 8.800 265.867,8.933 266.400,9.400 266.400 C 9.730 266.400,10.012 266.715,10.027 267.100 C 10.107 269.167,10.478 270.612,11.006 270.907 C 11.339 271.094,11.600 271.804,11.600 272.524 C 11.600 273.374,11.870 273.976,12.400 274.307 C 13.004 274.684,13.200 275.240,13.200 276.576 C 13.200 277.995,13.359 278.396,14.000 278.600 C 14.601 278.791,14.800 279.205,14.800 280.264 C 14.800 281.338,14.991 281.725,15.600 281.884 C 16.215 282.045,16.400 282.430,16.400 283.550 C 16.400 284.574,16.638 285.156,17.200 285.507 C 17.695 285.816,18.000 286.440,18.000 287.141 C 18.000 287.768,18.358 288.600,18.800 289.000 C 19.240 289.398,19.600 290.146,19.600 290.662 C 19.600 291.178,19.960 291.960,20.400 292.400 C 20.840 292.840,21.200 293.449,21.200 293.753 C 21.200 294.058,21.560 294.401,22.000 294.516 C 22.613 294.676,22.800 295.062,22.800 296.163 C 22.800 297.333,22.948 297.600,23.600 297.600 C 24.267 297.600,24.400 297.867,24.400 299.200 C 24.400 300.306,24.573 300.800,24.961 300.800 C 25.548 300.800,26.507 302.960,26.101 303.366 C 25.972 303.495,26.167 303.600,26.533 303.600 C 26.943 303.600,27.200 303.922,27.200 304.437 C 27.200 304.938,27.521 305.359,28.000 305.484 C 28.574 305.634,28.800 306.030,28.800 306.884 C 28.800 307.719,29.028 308.134,29.562 308.274 C 30.051 308.402,30.418 308.971,30.584 309.858 C 30.727 310.619,31.104 311.342,31.422 311.464 C 31.740 311.586,32.000 312.026,32.000 312.443 C 32.000 312.933,32.282 313.200,32.800 313.200 C 33.311 313.200,33.600 313.467,33.600 313.938 C 33.600 314.344,33.960 315.002,34.400 315.400 C 34.840 315.798,35.200 316.473,35.200 316.899 C 35.200 317.338,35.547 317.766,36.000 317.884 C 36.440 317.999,36.800 318.359,36.800 318.684 C 36.800 319.009,37.160 319.369,37.600 319.484 C 38.174 319.634,38.400 320.030,38.400 320.884 C 38.400 321.738,38.626 322.134,39.200 322.284 C 39.643 322.400,40.000 322.830,40.000 323.247 C 40.000 323.733,40.283 324.000,40.800 324.000 C 41.333 324.000,41.600 324.267,41.600 324.800 C 41.600 325.341,41.867 325.600,42.424 325.600 C 42.877 325.600,43.138 325.776,43.005 325.992 C 42.711 326.467,43.510 328.078,44.258 328.520 C 44.556 328.696,44.800 329.101,44.800 329.420 C 44.800 329.739,44.984 330.000,45.209 330.000 C 45.433 330.000,45.820 330.444,46.067 330.987 C 46.315 331.531,46.671 331.880,46.859 331.763 C 47.047 331.647,47.377 332.013,47.591 332.576 C 47.805 333.139,48.255 333.600,48.590 333.600 C 48.933 333.600,49.200 333.950,49.200 334.400 C 49.200 334.933,49.467 335.200,50.000 335.200 C 50.533 335.200,50.800 335.467,50.800 336.000 C 50.800 336.533,51.067 336.800,51.600 336.800 C 52.133 336.800,52.400 337.067,52.400 337.600 C 52.400 338.133,52.667 338.400,53.200 338.400 C 53.665 338.400,54.000 338.667,54.000 339.037 C 54.000 339.388,54.360 339.769,54.800 339.884 C 55.240 339.999,55.600 340.342,55.600 340.647 C 55.600 340.951,55.960 341.200,56.400 341.200 C 56.933 341.200,57.200 341.467,57.200 342.000 C 57.200 342.533,57.467 342.800,58.000 342.800 C 58.533 342.800,58.800 343.067,58.800 343.600 C 58.800 344.040,59.058 344.400,59.373 344.400 C 59.688 344.400,60.060 344.760,60.200 345.200 C 60.340 345.640,60.712 346.000,61.027 346.000 C 61.342 346.000,61.600 346.360,61.600 346.800 C 61.600 347.333,61.867 347.600,62.400 347.600 C 62.933 347.600,63.200 347.867,63.200 348.400 C 63.200 348.933,63.467 349.200,64.000 349.200 C 64.533 349.200,64.800 349.467,64.800 350.000 C 64.800 350.533,65.067 350.800,65.600 350.800 C 66.065 350.800,66.400 351.067,66.400 351.437 C 66.400 351.788,66.760 352.169,67.200 352.284 C 67.640 352.399,68.000 352.748,68.000 353.059 C 68.000 353.370,68.315 353.741,68.700 353.883 C 69.085 354.025,69.528 354.335,69.685 354.571 C 69.842 354.807,70.147 355.000,70.363 355.000 C 70.578 355.000,71.129 355.403,71.588 355.895 C 72.047 356.387,72.867 356.902,73.411 357.039 C 73.955 357.175,74.400 357.537,74.400 357.843 C 74.400 358.150,74.760 358.400,75.200 358.400 C 75.650 358.400,76.000 358.667,76.000 359.010 C 76.000 359.345,76.451 359.791,77.003 360.001 C 77.555 360.211,77.960 360.611,77.903 360.891 C 77.840 361.201,78.308 361.449,79.100 361.525 C 79.946 361.607,80.400 361.865,80.400 362.263 C 80.400 362.599,80.743 362.965,81.163 363.074 C 81.583 363.184,82.016 363.617,82.126 364.037 C 82.235 364.457,82.674 364.800,83.101 364.800 C 83.527 364.800,84.202 365.160,84.600 365.600 C 85.838 366.968,88.800 365.096,88.800 362.947 C 88.800 362.383,92.287 355.188,93.815 352.600 C 94.334 351.720,94.932 350.626,95.144 350.168 C 95.880 348.576,102.787 338.781,104.006 337.600 C 104.120 337.490,104.724 336.770,105.349 336.000 C 110.461 329.703,121.297 320.070,128.997 314.979 C 132.957 312.360,132.952 312.363,136.274 310.486 C 137.553 309.763,138.870 309.010,139.200 308.812 C 140.896 307.792,149.441 303.787,151.800 302.906 C 152.680 302.578,154.570 301.872,156.000 301.339 C 158.649 300.350,162.532 299.200,163.220 299.200 C 163.877 299.200,163.634 301.349,162.800 302.904 C 161.589 305.165,161.589 319.844,162.800 322.104 C 163.240 322.925,163.600 324.154,163.600 324.835 C 163.600 325.517,163.960 326.531,164.400 327.091 C 164.840 327.650,165.200 328.422,165.200 328.805 C 165.200 329.188,165.452 329.711,165.761 329.967 C 166.069 330.223,166.444 330.919,166.593 331.513 C 166.742 332.107,167.111 332.865,167.413 333.197 C 167.716 333.529,168.331 334.205,168.781 334.700 C 169.232 335.195,169.600 335.762,169.600 335.960 C 169.600 336.531,175.913 342.800,176.488 342.800 C 176.774 342.800,177.232 343.160,177.507 343.600 C 177.782 344.040,178.256 344.400,178.561 344.400 C 178.865 344.400,179.212 344.653,179.330 344.962 C 179.449 345.272,180.110 345.649,180.800 345.800 C 181.490 345.951,182.143 346.308,182.253 346.593 C 182.362 346.877,183.013 347.223,183.699 347.360 C 184.386 347.497,185.229 347.853,185.574 348.152 C 185.918 348.450,186.978 348.812,187.928 348.956 C 188.879 349.100,190.083 349.498,190.605 349.840 C 192.007 350.759,207.993 350.759,209.395 349.840 C 209.917 349.498,211.121 349.100,212.072 348.956 C 213.022 348.812,214.082 348.450,214.426 348.152 C 214.771 347.853,215.614 347.497,216.301 347.360 C 216.987 347.223,217.638 346.877,217.747 346.593 C 217.857 346.308,218.510 345.951,219.200 345.800 C 219.890 345.649,220.551 345.272,220.670 344.962 C 220.788 344.653,221.063 344.400,221.280 344.400 C 222.359 344.400,228.711 338.397,230.805 335.397 C 231.572 334.299,232.411 333.264,232.669 333.098 C 232.927 332.931,233.253 332.269,233.394 331.625 C 233.536 330.982,233.910 330.241,234.226 329.979 C 234.542 329.717,234.800 329.188,234.800 328.805 C 234.800 328.422,235.160 327.650,235.600 327.091 C 236.040 326.531,236.400 325.560,236.400 324.931 C 236.400 324.302,236.760 323.116,237.200 322.296 C 237.926 320.940,238.000 320.039,238.000 312.496 C 238.000 304.952,237.926 304.051,237.200 302.696 C 236.362 301.132,236.130 299.200,236.780 299.200 C 237.468 299.200,241.351 300.350,244.000 301.339 C 245.430 301.872,247.320 302.578,248.200 302.906 C 252.814 304.630,264.852 310.692,266.063 311.903 C 266.336 312.176,266.699 312.400,266.869 312.400 C 267.796 312.400,279.990 321.331,283.198 324.360 C 288.736 329.588,290.534 331.443,295.800 337.360 C 297.778 339.582,304.087 348.505,304.856 350.168 C 305.068 350.626,305.666 351.720,306.185 352.600 C 307.561 354.930,309.723 359.365,311.354 363.200 C 312.607 366.148,314.096 367.041,315.384 365.618 C 315.791 365.168,316.473 364.800,316.899 364.800 C 317.326 364.800,317.765 364.457,317.874 364.037 C 317.984 363.617,318.417 363.184,318.837 363.074 C 319.257 362.965,319.600 362.599,319.600 362.263 C 319.600 361.865,320.054 361.607,320.900 361.525 C 321.733 361.445,322.200 361.185,322.200 360.800 C 322.200 360.470,322.605 360.142,323.100 360.072 C 323.678 359.990,324.000 359.668,324.000 359.172 C 324.000 358.667,324.276 358.400,324.800 358.400 C 325.240 358.400,325.600 358.150,325.600 357.843 C 325.600 357.537,326.045 357.175,326.589 357.039 C 327.133 356.902,327.953 356.387,328.412 355.895 C 328.871 355.403,329.422 355.000,329.637 355.000 C 329.853 355.000,330.158 354.807,330.315 354.571 C 330.472 354.335,330.915 354.025,331.300 353.883 C 331.685 353.741,332.000 353.370,332.000 353.059 C 332.000 352.748,332.360 352.399,332.800 352.284 C 333.240 352.169,333.600 351.788,333.600 351.437 C 333.600 351.067,333.935 350.800,334.400 350.800 C 334.933 350.800,335.200 350.533,335.200 350.000 C 335.200 349.467,335.467 349.200,336.000 349.200 C 336.533 349.200,336.800 348.933,336.800 348.400 C 336.800 347.867,337.067 347.600,337.600 347.600 C 338.133 347.600,338.400 347.333,338.400 346.800 C 338.400 346.360,338.658 346.000,338.973 346.000 C 339.288 346.000,339.660 345.640,339.800 345.200 C 339.940 344.760,340.312 344.400,340.627 344.400 C 340.942 344.400,341.200 344.040,341.200 343.600 C 341.200 343.067,341.467 342.800,342.000 342.800 C 342.533 342.800,342.800 342.533,342.800 342.000 C 342.800 341.467,343.067 341.200,343.600 341.200 C 344.040 341.200,344.400 340.951,344.400 340.647 C 344.400 340.342,344.760 339.999,345.200 339.884 C 345.640 339.769,346.000 339.388,346.000 339.037 C 346.000 338.667,346.335 338.400,346.800 338.400 C 347.333 338.400,347.600 338.133,347.600 337.600 C 347.600 337.067,347.867 336.800,348.400 336.800 C 348.933 336.800,349.200 336.533,349.200 336.000 C 349.200 335.467,349.467 335.200,350.000 335.200 C 350.517 335.200,350.800 334.933,350.800 334.447 C 350.800 334.030,351.157 333.600,351.600 333.484 C 352.040 333.369,352.400 332.988,352.400 332.637 C 352.400 332.287,352.674 332.000,353.010 332.000 C 353.345 332.000,353.791 331.550,354.000 331.000 C 354.209 330.450,354.565 330.000,354.790 330.000 C 355.016 330.000,355.200 329.739,355.200 329.420 C 355.200 329.101,355.444 328.696,355.742 328.520 C 356.490 328.078,357.289 326.467,356.995 325.992 C 356.862 325.776,357.123 325.600,357.576 325.600 C 358.133 325.600,358.400 325.341,358.400 324.800 C 358.400 324.267,358.667 324.000,359.200 324.000 C 359.717 324.000,360.000 323.733,360.000 323.247 C 360.000 322.830,360.357 322.400,360.800 322.284 C 361.374 322.134,361.600 321.738,361.600 320.884 C 361.600 320.030,361.826 319.634,362.400 319.484 C 362.840 319.369,363.200 319.009,363.200 318.684 C 363.200 318.359,363.560 317.999,364.000 317.884 C 364.453 317.766,364.800 317.338,364.800 316.899 C 364.800 316.473,365.160 315.798,365.600 315.400 C 366.040 315.002,366.400 314.344,366.400 313.938 C 366.400 313.467,366.689 313.200,367.200 313.200 C 367.718 313.200,368.000 312.933,368.000 312.443 C 368.000 312.026,368.260 311.586,368.578 311.464 C 368.896 311.342,369.273 310.619,369.416 309.858 C 369.582 308.971,369.949 308.402,370.438 308.274 C 370.972 308.134,371.200 307.719,371.200 306.884 C 371.200 306.030,371.426 305.634,372.000 305.484 C 372.479 305.359,372.800 304.938,372.800 304.437 C 372.800 303.922,373.057 303.600,373.467 303.600 C 373.833 303.600,374.028 303.495,373.899 303.366 C 373.493 302.960,374.452 300.800,375.039 300.800 C 375.427 300.800,375.600 300.306,375.600 299.200 C 375.600 297.867,375.733 297.600,376.400 297.600 C 377.052 297.600,377.200 297.333,377.200 296.163 C 377.200 295.062,377.387 294.676,378.000 294.516 C 378.440 294.401,378.800 293.987,378.800 293.596 C 378.800 293.205,379.089 292.775,379.442 292.639 C 379.819 292.494,379.986 292.140,379.846 291.776 C 379.711 291.423,379.778 291.263,380.005 291.403 C 380.232 291.544,380.400 291.128,380.400 290.424 C 380.400 289.673,380.589 289.239,380.888 289.300 C 381.165 289.357,381.562 288.646,381.809 287.652 C 382.048 286.691,382.548 285.681,382.921 285.408 C 383.337 285.104,383.600 284.366,383.600 283.503 C 383.600 282.430,383.791 282.043,384.400 281.884 C 385.009 281.725,385.200 281.338,385.200 280.264 C 385.200 279.205,385.399 278.791,386.000 278.600 C 386.641 278.396,386.800 277.995,386.800 276.576 C 386.800 275.240,386.996 274.684,387.600 274.307 C 388.130 273.976,388.400 273.374,388.400 272.524 C 388.400 271.804,388.661 271.094,388.994 270.907 C 389.541 270.601,389.906 269.111,389.973 266.913 C 389.992 266.283,390.179 266.094,390.616 266.262 C 390.955 266.392,391.204 266.341,391.169 266.149 C 390.802 264.141,391.266 261.600,392.000 261.600 C 392.711 261.600,392.800 261.333,392.800 259.200 C 392.800 257.415,392.943 256.800,393.357 256.800 C 394.138 256.800,394.400 255.898,394.400 253.214 C 394.400 251.230,394.516 250.863,395.200 250.684 C 395.919 250.496,396.000 250.138,396.000 247.171 C 396.000 245.354,396.111 243.978,396.248 244.114 C 397.020 244.886,397.600 243.047,397.600 239.829 C 397.600 237.165,397.724 236.400,398.157 236.400 C 399.037 236.400,399.200 235.457,399.200 230.367 C 399.200 227.456,399.356 225.600,399.600 225.600 C 399.863 225.600,400.000 216.800,400.000 200.000 C 400.000 183.200,399.863 174.400,399.600 174.400 C 399.356 174.400,399.200 172.544,399.200 169.633 C 399.200 164.543,399.037 163.600,398.157 163.600 C 397.679 163.600,397.236 158.128,397.564 156.266 C 397.596 156.082,397.258 155.836,396.811 155.719 C 396.087 155.530,396.000 155.184,396.000 152.516 C 396.000 149.862,395.910 149.502,395.200 149.316 C 394.516 149.137,394.400 148.770,394.400 146.786 C 394.400 144.102,394.138 143.200,393.357 143.200 C 392.943 143.200,392.800 142.585,392.800 140.800 C 392.800 138.667,392.711 138.400,392.000 138.400 C 391.289 138.400,391.200 138.133,391.200 136.000 C 391.200 134.133,391.067 133.600,390.600 133.600 C 390.270 133.600,389.988 133.285,389.973 132.900 C 389.893 130.833,389.522 129.388,388.994 129.093 C 388.661 128.906,388.400 128.196,388.400 127.476 C 388.400 126.626,388.130 126.024,387.600 125.693 C 386.996 125.316,386.800 124.760,386.800 123.424 C 386.800 122.005,386.641 121.604,386.000 121.400 C 385.399 121.209,385.200 120.795,385.200 119.736 C 385.200 118.662,385.009 118.275,384.400 118.116 C 383.785 117.955,383.600 117.570,383.600 116.450 C 383.600 115.426,383.362 114.844,382.800 114.493 C 382.305 114.184,382.000 113.560,382.000 112.859 C 382.000 112.232,381.642 111.400,381.200 111.000 C 380.760 110.602,380.400 109.854,380.400 109.338 C 380.400 108.822,380.040 108.040,379.600 107.600 C 379.160 107.160,378.800 106.551,378.800 106.247 C 378.800 105.942,378.440 105.599,378.000 105.484 C 377.387 105.324,377.200 104.938,377.200 103.837 C 377.200 102.667,377.052 102.400,376.400 102.400 C 375.733 102.400,375.600 102.133,375.600 100.800 C 375.600 99.694,375.427 99.200,375.039 99.200 C 374.452 99.200,373.493 97.040,373.899 96.634 C 374.028 96.505,373.833 96.400,373.467 96.400 C 373.097 96.400,372.800 96.086,372.800 95.696 C 372.800 95.309,372.440 94.768,372.000 94.493 C 371.535 94.203,371.200 93.560,371.200 92.959 C 371.200 92.279,370.939 91.857,370.438 91.726 C 369.949 91.598,369.582 91.029,369.416 90.142 C 369.273 89.381,368.896 88.658,368.578 88.536 C 368.260 88.414,368.000 87.974,368.000 87.557 C 368.000 87.067,367.718 86.800,367.200 86.800 C 366.689 86.800,366.400 86.533,366.400 86.062 C 366.400 85.656,366.040 84.998,365.600 84.600 C 365.160 84.202,364.800 83.527,364.800 83.101 C 364.800 82.674,364.457 82.235,364.037 82.126 C 363.617 82.016,363.184 81.583,363.074 81.163 C 362.965 80.743,362.588 80.400,362.237 80.400 C 361.792 80.400,361.600 80.028,361.600 79.163 C 361.600 78.262,361.383 77.868,360.800 77.716 C 360.357 77.600,360.000 77.170,360.000 76.753 C 360.000 76.267,359.717 76.000,359.200 76.000 C 358.667 76.000,358.400 75.733,358.400 75.200 C 358.400 74.659,358.133 74.400,357.576 74.400 C 357.123 74.400,356.862 74.224,356.995 74.008 C 357.289 73.533,356.490 71.922,355.742 71.480 C 355.444 71.304,355.200 70.899,355.200 70.580 C 355.200 70.261,355.016 70.000,354.791 70.000 C 354.567 70.000,354.178 69.550,353.927 69.000 C 353.677 68.450,353.251 68.000,352.982 68.000 C 352.713 68.000,352.399 67.640,352.284 67.200 C 352.169 66.760,351.788 66.400,351.437 66.400 C 351.067 66.400,350.800 66.065,350.800 65.600 C 350.800 65.067,350.533 64.800,350.000 64.800 C 349.467 64.800,349.200 64.533,349.200 64.000 C 349.200 63.467,348.933 63.200,348.400 63.200 C 347.867 63.200,347.600 62.933,347.600 62.400 C 347.600 61.883,347.333 61.600,346.847 61.600 C 346.430 61.600,346.000 61.243,345.884 60.800 C 345.769 60.360,345.388 60.000,345.037 60.000 C 344.687 60.000,344.400 59.730,344.400 59.400 C 344.400 59.067,344.044 58.800,343.600 58.800 C 343.067 58.800,342.800 58.533,342.800 58.000 C 342.800 57.467,342.533 57.200,342.000 57.200 C 341.467 57.200,341.200 56.933,341.200 56.400 C 341.200 55.960,340.942 55.600,340.627 55.600 C 340.312 55.600,339.940 55.240,339.800 54.800 C 339.660 54.360,339.288 54.000,338.973 54.000 C 338.658 54.000,338.400 53.640,338.400 53.200 C 338.400 52.667,338.133 52.400,337.600 52.400 C 337.067 52.400,336.800 52.133,336.800 51.600 C 336.800 51.067,336.533 50.800,336.000 50.800 C 335.467 50.800,335.200 50.533,335.200 50.000 C 335.200 49.467,334.933 49.200,334.400 49.200 C 333.950 49.200,333.600 48.933,333.600 48.590 C 333.600 48.255,333.139 47.805,332.576 47.591 C 332.013 47.377,331.663 47.021,331.800 46.801 C 331.936 46.580,331.869 46.400,331.652 46.400 C 331.435 46.400,330.942 46.085,330.557 45.700 C 330.172 45.315,329.720 45.000,329.551 45.000 C 329.383 45.000,328.871 44.597,328.412 44.105 C 327.953 43.613,327.133 43.098,326.589 42.961 C 326.045 42.825,325.600 42.463,325.600 42.157 C 325.600 41.850,325.240 41.600,324.800 41.600 C 324.350 41.600,324.000 41.333,324.000 40.990 C 324.000 40.655,323.549 40.209,322.997 39.999 C 322.445 39.789,322.040 39.389,322.097 39.109 C 322.160 38.799,321.692 38.551,320.900 38.475 C 320.054 38.393,319.600 38.135,319.600 37.737 C 319.600 37.401,319.257 37.035,318.837 36.926 C 318.417 36.816,317.984 36.383,317.874 35.963 C 317.765 35.543,317.388 35.200,317.037 35.200 C 316.687 35.200,316.040 34.840,315.600 34.400 C 315.160 33.960,314.440 33.600,314.000 33.600 C 313.499 33.600,313.200 33.333,313.200 32.887 C 313.200 32.401,312.856 32.146,312.118 32.085 C 311.522 32.036,310.847 31.790,310.618 31.539 C 310.315 31.208,310.365 31.162,310.800 31.371 C 311.130 31.530,311.051 31.376,310.624 31.030 C 310.196 30.683,309.542 30.400,309.170 30.400 C 308.798 30.400,308.399 30.040,308.284 29.600 C 308.143 29.060,307.738 28.800,307.041 28.800 C 306.440 28.800,305.797 28.465,305.507 28.000 C 305.232 27.560,304.691 27.200,304.304 27.200 C 303.914 27.200,303.600 26.903,303.600 26.533 C 303.600 26.167,303.495 25.972,303.366 26.101 C 302.960 26.507,300.800 25.548,300.800 24.961 C 300.800 24.573,300.306 24.400,299.200 24.400 C 297.867 24.400,297.600 24.267,297.600 23.600 C 297.600 22.948,297.333 22.800,296.163 22.800 C 295.062 22.800,294.676 22.613,294.516 22.000 C 294.401 21.560,294.058 21.200,293.753 21.200 C 293.449 21.200,292.840 20.840,292.400 20.400 C 291.956 19.956,291.067 19.600,290.400 19.600 C 289.668 19.600,289.239 19.410,289.300 19.112 C 289.357 18.835,288.646 18.438,287.652 18.191 C 286.691 17.952,285.681 17.452,285.408 17.079 C 285.102 16.660,284.365 16.400,283.483 16.400 C 282.405 16.400,281.991 16.203,281.800 15.600 C 281.612 15.009,281.195 14.800,280.200 14.800 C 279.205 14.800,278.788 14.591,278.600 14.000 C 278.396 13.359,277.995 13.200,276.576 13.200 C 275.240 13.200,274.684 13.004,274.307 12.400 C 273.951 11.830,273.374 11.600,272.304 11.600 C 271.234 11.600,270.800 11.427,270.800 11.000 C 270.800 10.662,270.406 10.373,269.900 10.339 C 269.405 10.306,268.820 10.236,268.600 10.185 C 268.380 10.134,267.795 10.072,267.300 10.046 C 266.787 10.020,266.400 9.742,266.400 9.400 C 266.400 8.933,265.867 8.800,264.000 8.800 C 261.867 8.800,261.600 8.711,261.600 8.000 C 261.600 7.291,261.333 7.200,259.247 7.200 C 257.230 7.200,256.863 7.086,256.684 6.400 C 256.500 5.696,256.138 5.600,253.684 5.600 C 251.251 5.600,250.867 5.500,250.689 4.818 C 250.511 4.138,250.070 4.020,247.342 3.918 C 245.614 3.853,244.260 3.640,244.334 3.445 C 244.609 2.718,243.304 2.412,239.900 2.406 C 237.178 2.401,236.400 2.276,236.400 1.843 C 236.400 0.963,235.457 0.800,230.367 0.800 C 227.456 0.800,225.600 0.644,225.600 0.400 C 225.600 0.138,216.800 0.000,200.000 0.000 C 183.200 0.000,174.400 0.138,174.400 0.400 M206.000 75.351 C 207.210 75.664,210.270 76.043,212.800 76.192 C 215.330 76.341,218.536 76.719,219.925 77.032 C 223.304 77.792,233.850 77.790,236.712 77.028 C 237.874 76.719,240.214 76.336,241.912 76.177 C 243.610 76.018,245.389 75.632,245.865 75.320 C 251.930 71.347,255.276 83.788,251.416 95.956 C 250.780 97.959,250.467 97.520,255.200 101.251 C 256.630 102.378,257.944 103.548,258.120 103.850 C 258.296 104.153,258.602 104.400,258.801 104.400 C 259.611 104.400,270.212 114.967,272.917 118.471 C 273.311 118.982,274.076 119.940,274.617 120.600 C 275.157 121.260,275.599 122.006,275.600 122.257 C 275.600 122.509,275.870 122.818,276.200 122.945 C 276.530 123.071,276.800 123.423,276.800 123.725 C 276.800 124.028,277.160 124.602,277.600 125.000 C 278.040 125.398,278.400 125.942,278.400 126.208 C 278.400 126.474,278.749 127.136,279.175 127.678 C 279.602 128.220,280.071 129.144,280.219 129.732 C 280.366 130.319,280.640 130.800,280.827 130.800 C 281.015 130.800,281.384 131.520,281.647 132.400 C 281.911 133.280,282.270 134.000,282.445 134.000 C 282.620 134.000,282.885 134.675,283.033 135.500 C 283.180 136.325,283.548 137.284,283.850 137.630 C 284.151 137.977,284.565 139.057,284.769 140.030 C 284.972 141.004,285.415 142.520,285.752 143.400 C 286.089 144.280,286.373 145.653,286.382 146.451 C 286.392 147.249,286.715 148.599,287.100 149.451 C 287.738 150.863,287.808 153.115,287.890 174.946 L 287.980 198.893 289.320 200.546 C 297.745 210.941,293.663 225.419,280.959 230.201 C 279.499 230.750,277.707 231.200,276.976 231.200 C 275.225 231.200,275.274 231.053,274.991 237.232 C 274.768 242.105,274.347 245.247,273.226 250.400 C 272.445 253.991,271.559 257.022,270.985 258.062 C 270.663 258.646,270.400 259.346,270.400 259.618 C 270.400 260.800,266.510 268.458,263.789 272.633 C 257.516 282.258,245.070 293.603,237.152 296.911 C 235.009 297.806,234.281 299.010,235.021 300.440 C 235.339 301.056,235.602 301.884,235.605 302.280 C 235.607 302.676,235.965 304.440,236.400 306.200 C 236.855 308.041,237.191 310.759,237.191 312.600 C 237.191 314.441,236.855 317.159,236.400 319.000 C 235.965 320.760,235.607 322.516,235.605 322.901 C 235.602 323.287,235.240 324.275,234.800 325.096 C 234.360 325.916,234.000 326.800,234.000 327.059 C 234.000 327.851,230.775 333.280,229.046 335.400 C 223.824 341.802,215.528 347.243,209.546 348.191 C 208.586 348.343,206.912 348.722,205.827 349.034 C 203.285 349.764,196.715 349.764,194.173 349.034 C 193.088 348.722,191.414 348.343,190.454 348.191 C 184.472 347.243,176.176 341.802,170.954 335.400 C 169.225 333.280,166.000 327.851,166.000 327.059 C 166.000 326.800,165.640 325.916,165.200 325.096 C 164.760 324.275,164.397 323.197,164.393 322.701 C 164.389 322.206,164.032 320.450,163.600 318.800 C 162.581 314.913,162.581 310.324,163.600 306.200 C 164.035 304.440,164.393 302.676,164.395 302.280 C 164.398 301.884,164.683 301.013,165.029 300.344 C 165.787 298.877,165.147 297.888,162.800 296.900 C 153.488 292.981,139.437 279.230,133.679 268.400 C 133.152 267.410,132.481 266.150,132.188 265.600 C 131.166 263.684,129.600 260.046,129.600 259.586 C 129.600 259.332,129.337 258.646,129.015 258.062 C 128.244 256.665,127.469 253.740,125.924 246.400 C 125.670 245.190,125.267 241.320,125.031 237.800 L 124.600 231.400 122.600 231.129 C 108.025 229.158,101.357 212.049,110.679 200.547 L 112.019 198.895 112.109 169.747 C 112.193 142.935,112.256 140.481,112.900 139.113 C 113.285 138.295,113.608 136.945,113.618 136.113 C 113.627 135.281,113.911 133.880,114.248 133.000 C 114.585 132.120,115.023 130.626,115.222 129.679 C 115.421 128.733,115.857 127.568,116.192 127.090 C 116.526 126.613,116.800 125.893,116.800 125.490 C 116.800 125.088,117.144 124.093,117.565 123.279 C 117.986 122.466,118.817 120.810,119.412 119.600 C 120.007 118.390,120.915 116.680,121.431 115.800 C 121.946 114.920,122.650 113.705,122.994 113.100 C 123.339 112.495,123.796 112.000,124.010 112.000 C 124.225 112.000,124.400 111.739,124.400 111.421 C 124.400 111.102,124.805 110.380,125.300 109.817 C 125.795 109.253,126.560 108.334,127.000 107.774 C 128.396 105.999,132.130 101.973,134.162 100.054 C 138.387 96.062,139.577 94.973,140.471 94.283 C 140.982 93.889,141.940 93.124,142.600 92.583 C 143.260 92.043,143.935 91.601,144.100 91.600 C 144.265 91.600,144.805 91.232,145.300 90.781 C 147.098 89.147,147.433 88.901,149.400 87.779 C 150.500 87.152,151.490 86.516,151.600 86.366 C 151.710 86.216,152.970 85.488,154.400 84.749 C 155.830 84.010,157.238 83.179,157.529 82.903 C 157.819 82.626,158.359 82.399,158.729 82.397 C 159.098 82.396,159.940 82.037,160.600 81.600 C 161.260 81.163,162.132 80.804,162.537 80.803 C 162.942 80.801,163.731 80.440,164.291 80.000 C 164.850 79.560,165.694 79.200,166.165 79.200 C 166.636 79.200,167.399 78.936,167.860 78.613 C 168.321 78.290,169.486 77.902,170.449 77.750 C 171.412 77.599,172.564 77.239,173.008 76.952 C 173.452 76.664,174.892 76.308,176.208 76.160 C 177.524 76.012,178.960 75.700,179.400 75.467 C 181.513 74.349,201.785 74.260,206.000 75.351 M288.101 381.322 C 288.046 382.053,288.076 382.055,288.822 381.380 C 289.780 380.514,289.785 380.436,288.879 380.504 C 288.479 380.534,288.133 380.898,288.101 381.322 M155.753 396.477 C 155.636 396.665,155.779 396.770,156.070 396.710 C 156.362 396.649,156.555 396.825,156.500 397.100 C 156.445 397.375,156.692 397.600,157.049 397.600 C 157.547 397.600,157.594 397.475,157.252 397.063 C 157.007 396.768,156.895 396.438,157.003 396.330 C 157.112 396.222,156.922 396.133,156.582 396.133 C 156.243 396.133,155.869 396.288,155.753 396.477 M242.960 396.293 C 243.088 396.421,242.993 396.768,242.748 397.063 C 242.406 397.475,242.453 397.600,242.951 397.600 C 243.308 397.600,243.555 397.375,243.500 397.100 C 243.445 396.825,243.670 396.660,244.000 396.733 C 244.330 396.807,244.460 396.726,244.288 396.555 C 244.117 396.384,243.696 396.202,243.352 396.152 C 243.008 396.101,242.832 396.165,242.960 396.293 "
       stroke="none"
       fill="#4b93fb"
       fill-rule="evenodd"
       style="fill:#9f59f7;fill-opacity:1" />
    <path
       id="path2"
       d="M184.800 75.587 C 183.810 75.773,181.740 76.136,180.200 76.394 C 178.660 76.652,176.230 77.212,174.800 77.637 C 173.370 78.063,171.930 78.415,171.600 78.419 C 171.270 78.424,170.280 78.775,169.400 79.200 C 168.520 79.625,167.468 79.979,167.062 79.986 C 166.656 79.994,165.846 80.258,165.262 80.573 C 164.678 80.888,163.120 81.615,161.800 82.188 C 160.480 82.761,159.130 83.404,158.800 83.616 C 158.470 83.828,157.757 84.191,157.216 84.423 C 154.790 85.461,146.179 90.943,144.057 92.800 C 143.680 93.130,142.316 94.208,141.025 95.196 C 136.261 98.841,125.936 109.789,125.083 112.100 C 124.941 112.485,124.657 112.800,124.452 112.800 C 124.246 112.800,123.874 113.295,123.623 113.900 C 123.373 114.505,122.731 115.720,122.196 116.600 C 121.344 118.002,120.604 119.480,118.193 124.600 C 117.882 125.260,117.503 126.340,117.351 127.000 C 117.198 127.660,116.849 128.560,116.575 129.000 C 116.301 129.440,115.949 130.610,115.792 131.600 C 115.635 132.590,115.332 133.733,115.118 134.139 C 114.905 134.546,114.484 136.526,114.183 138.539 C 113.883 140.553,113.453 143.370,113.227 144.800 C 112.752 147.808,112.633 196.658,113.100 196.923 C 113.265 197.017,113.940 196.759,114.600 196.351 C 115.260 195.943,116.250 195.406,116.800 195.159 C 117.350 194.912,118.278 194.460,118.862 194.155 C 119.446 193.850,120.526 193.598,121.262 193.595 C 121.998 193.592,123.005 193.481,123.500 193.348 L 124.400 193.107 124.400 181.603 C 124.400 166.441,124.580 165.690,127.500 168.660 C 128.332 169.507,129.798 170.830,130.758 171.600 C 131.717 172.370,132.839 173.315,133.251 173.700 C 133.663 174.085,134.146 174.400,134.325 174.400 C 134.503 174.400,135.006 174.732,135.442 175.139 C 136.252 175.893,137.592 176.691,139.900 177.791 C 140.615 178.132,141.200 178.568,141.200 178.761 C 141.200 178.953,141.812 179.226,142.560 179.366 C 143.308 179.506,144.140 179.886,144.409 180.211 C 144.678 180.535,145.191 180.801,145.549 180.801 C 145.907 180.802,146.789 181.162,147.510 181.601 C 148.230 182.041,149.133 182.400,149.516 182.400 C 149.899 182.400,150.884 182.760,151.704 183.200 C 152.525 183.640,153.603 184.004,154.099 184.009 C 154.594 184.014,155.785 184.374,156.744 184.809 C 157.703 185.244,159.074 185.600,159.792 185.600 C 160.509 185.600,162.244 185.976,163.648 186.436 C 167.486 187.694,185.684 187.690,189.552 186.431 C 190.956 185.974,192.666 185.594,193.352 185.586 C 194.038 185.579,195.320 185.225,196.200 184.800 C 197.080 184.375,198.206 184.021,198.701 184.014 C 199.197 184.006,200.275 183.640,201.096 183.200 C 201.916 182.760,202.884 182.400,203.245 182.400 C 203.606 182.400,204.117 182.142,204.379 181.826 C 204.641 181.510,205.428 181.126,206.128 180.974 C 206.827 180.821,207.829 180.359,208.354 179.948 C 208.879 179.537,209.532 179.200,209.805 179.200 C 210.078 179.200,210.517 178.942,210.779 178.626 C 211.041 178.310,211.783 177.936,212.428 177.794 C 213.072 177.652,213.600 177.401,213.600 177.236 C 213.600 176.851,217.366 174.400,217.956 174.400 C 218.200 174.400,218.400 174.263,218.400 174.095 C 218.400 173.927,219.580 172.892,221.022 171.795 C 223.731 169.733,230.800 162.909,230.800 162.355 C 230.800 162.182,231.247 161.537,231.794 160.921 C 233.962 158.475,233.856 158.623,235.352 155.972 C 235.765 155.239,236.350 154.392,236.652 154.091 C 236.953 153.790,237.200 153.313,237.200 153.033 C 237.200 152.752,237.560 152.107,238.000 151.600 C 238.440 151.093,238.803 150.390,238.808 150.039 C 238.812 149.687,239.353 148.544,240.010 147.498 C 241.406 145.274,241.166 145.217,245.979 148.932 C 247.641 150.215,249.507 151.655,250.128 152.132 C 250.748 152.610,251.553 153.315,251.916 153.700 C 252.280 154.085,252.808 154.400,253.089 154.400 C 253.370 154.400,253.600 154.575,253.600 154.790 C 253.600 155.004,254.095 155.443,254.700 155.766 C 255.305 156.088,256.480 156.948,257.310 157.676 C 258.141 158.404,259.221 159.306,259.710 159.680 C 262.511 161.822,271.633 169.007,272.946 170.106 C 273.796 170.818,274.696 171.528,274.946 171.685 C 275.261 171.882,275.438 175.198,275.525 182.477 C 275.663 194.054,275.544 193.584,278.338 193.594 C 279.294 193.597,280.554 193.850,281.138 194.155 C 281.722 194.460,282.650 194.912,283.200 195.159 C 283.750 195.406,284.740 195.943,285.400 196.351 C 287.243 197.491,287.200 197.949,287.205 177.076 C 287.211 156.991,286.760 150.081,285.140 145.400 C 284.911 144.740,284.553 143.390,284.344 142.400 C 284.134 141.410,283.701 140.122,283.382 139.538 C 283.062 138.954,282.800 138.246,282.800 137.965 C 282.800 137.418,281.895 135.356,279.861 131.266 C 277.993 127.510,277.506 126.621,277.198 126.400 C 277.045 126.290,276.686 125.757,276.400 125.215 C 273.695 120.086,264.113 109.846,255.300 102.667 C 249.552 97.984,249.326 97.613,250.689 95.080 C 251.890 92.849,251.720 79.115,250.467 77.100 C 249.421 75.417,249.272 75.376,247.013 76.159 C 246.126 76.466,244.230 76.919,242.800 77.166 C 241.370 77.412,239.210 77.806,238.000 78.041 C 235.226 78.581,217.161 78.266,215.206 77.645 C 214.439 77.401,211.435 77.012,208.530 76.780 C 205.626 76.548,202.653 76.181,201.925 75.964 C 200.174 75.443,187.096 75.155,184.800 75.587 M162.271 201.388 C 157.719 203.569,155.595 208.668,157.600 212.600 C 158.040 213.463,158.400 214.401,158.400 214.685 C 158.400 214.968,158.627 215.200,158.904 215.200 C 159.181 215.200,159.632 215.560,159.907 216.000 C 160.182 216.440,160.630 216.806,160.903 216.814 C 161.177 216.821,162.120 217.175,163.000 217.600 C 163.880 218.025,165.050 218.373,165.600 218.373 C 166.150 218.373,167.320 218.025,168.200 217.600 C 169.080 217.175,169.993 216.821,170.228 216.814 C 172.349 216.746,176.127 206.800,174.031 206.800 C 173.828 206.800,173.463 206.196,173.219 205.459 C 171.929 201.550,166.300 199.457,162.271 201.388 M231.074 201.386 C 228.610 202.567,227.336 203.775,226.781 205.459 C 226.537 206.196,226.172 206.800,225.969 206.800 C 223.873 206.800,227.651 216.746,229.772 216.814 C 230.007 216.821,230.920 217.175,231.800 217.600 C 232.680 218.025,233.850 218.373,234.400 218.373 C 234.950 218.373,236.120 218.025,237.000 217.600 C 237.880 217.175,238.823 216.821,239.097 216.814 C 239.370 216.806,239.818 216.440,240.093 216.000 C 240.368 215.560,240.819 215.200,241.096 215.200 C 241.373 215.200,241.600 214.968,241.600 214.685 C 241.600 214.401,241.960 213.463,242.400 212.600 C 245.754 206.021,237.811 198.157,231.074 201.386 "
       stroke="none"
       fill="#242445"
       fill-rule="evenodd" />
    <path
       id="path3"
       d="M88.588 31.220 C 88.207 31.835,88.728 32.232,89.242 31.718 C 89.529 31.431,89.536 31.207,89.262 31.039 C 89.039 30.900,88.735 30.982,88.588 31.220 M310.639 31.138 C 310.500 31.361,310.582 31.665,310.820 31.812 C 311.435 32.193,311.832 31.672,311.318 31.158 C 311.031 30.871,310.807 30.864,310.639 31.138 M183.200 74.782 C 181.550 74.926,179.840 75.234,179.400 75.467 C 178.960 75.700,177.524 76.012,176.208 76.160 C 174.892 76.308,173.452 76.664,173.008 76.952 C 172.564 77.239,171.412 77.599,170.449 77.750 C 169.486 77.902,168.321 78.290,167.860 78.613 C 167.399 78.936,166.636 79.200,166.165 79.200 C 165.694 79.200,164.850 79.560,164.291 80.000 C 163.731 80.440,162.942 80.801,162.537 80.803 C 162.132 80.804,161.260 81.163,160.600 81.600 C 159.940 82.037,159.098 82.396,158.729 82.397 C 158.359 82.399,157.819 82.626,157.529 82.903 C 157.238 83.179,155.830 84.010,154.400 84.749 C 152.970 85.488,151.710 86.216,151.600 86.366 C 151.490 86.516,150.500 87.152,149.400 87.779 C 147.433 88.901,147.098 89.147,145.300 90.781 C 144.805 91.232,144.265 91.600,144.100 91.600 C 143.935 91.601,143.260 92.043,142.600 92.583 C 141.940 93.124,140.982 93.889,140.471 94.283 C 139.577 94.973,138.387 96.062,134.162 100.054 C 132.130 101.973,128.396 105.999,127.000 107.774 C 126.560 108.334,125.795 109.253,125.300 109.817 C 124.805 110.380,124.400 111.102,124.400 111.421 C 124.400 111.739,124.225 112.000,124.010 112.000 C 123.796 112.000,123.339 112.495,122.994 113.100 C 122.650 113.705,121.946 114.920,121.431 115.800 C 120.915 116.680,120.007 118.390,119.412 119.600 C 118.817 120.810,117.986 122.466,117.565 123.279 C 117.144 124.093,116.800 125.088,116.800 125.490 C 116.800 125.893,116.526 126.613,116.192 127.090 C 115.857 127.568,115.421 128.733,115.222 129.679 C 115.023 130.626,114.585 132.120,114.248 133.000 C 113.911 133.880,113.627 135.281,113.618 136.113 C 113.608 136.945,113.288 138.295,112.907 139.113 C 112.272 140.477,112.212 142.938,112.182 168.800 L 112.149 197.000 112.412 169.800 C 112.639 146.391,112.767 142.265,113.331 140.200 C 113.692 138.880,113.988 137.350,113.988 136.800 C 113.988 136.250,114.377 134.540,114.853 133.000 C 116.298 128.315,117.640 124.330,118.002 123.647 C 118.191 123.291,118.906 121.830,119.591 120.400 C 122.136 115.088,126.527 108.704,130.561 104.450 C 132.268 102.651,135.207 99.765,138.850 96.312 C 140.332 94.907,150.182 87.600,150.593 87.600 C 150.698 87.600,151.794 86.954,153.029 86.164 C 154.263 85.375,155.842 84.472,156.537 84.158 C 157.231 83.845,158.070 83.437,158.400 83.253 C 158.730 83.069,159.810 82.556,160.800 82.113 C 161.790 81.671,163.230 81.020,164.000 80.667 C 167.360 79.129,173.105 77.339,177.162 76.567 C 178.792 76.257,180.772 75.823,181.562 75.604 C 182.353 75.384,183.765 75.203,184.700 75.202 C 185.635 75.201,186.400 75.020,186.400 74.800 C 186.400 74.580,186.355 74.427,186.300 74.460 C 186.245 74.494,184.850 74.638,183.200 74.782 M189.317 74.697 C 190.811 74.774,193.151 74.774,194.517 74.696 C 195.882 74.618,194.660 74.555,191.800 74.555 C 188.940 74.556,187.822 74.620,189.317 74.697 M197.200 74.892 C 197.200 75.062,198.088 75.200,199.174 75.200 C 200.260 75.200,202.825 75.459,204.874 75.776 C 206.923 76.092,210.490 76.553,212.800 76.800 C 215.110 77.047,218.080 77.403,219.400 77.591 C 222.537 78.037,234.891 78.049,237.200 77.608 C 238.190 77.419,240.530 76.994,242.400 76.664 C 244.270 76.334,246.307 75.870,246.926 75.632 C 249.964 74.467,251.183 75.781,252.028 81.131 C 252.614 84.838,251.877 93.670,250.760 96.331 L 250.201 97.662 252.294 99.531 C 253.445 100.559,255.065 101.904,255.894 102.521 C 260.480 105.932,271.974 117.380,273.360 119.917 C 273.566 120.293,274.305 121.320,275.004 122.200 C 278.724 126.887,282.971 135.795,285.110 143.400 C 287.306 151.206,287.368 151.989,287.619 175.000 L 287.855 196.600 287.825 173.800 C 287.798 153.009,287.734 150.864,287.098 149.451 C 286.714 148.599,286.392 147.249,286.382 146.451 C 286.373 145.653,286.089 144.280,285.752 143.400 C 285.415 142.520,284.972 141.004,284.769 140.030 C 284.565 139.057,284.151 137.977,283.850 137.630 C 283.548 137.284,283.180 136.325,283.033 135.500 C 282.885 134.675,282.620 134.000,282.445 134.000 C 282.270 134.000,281.911 133.280,281.647 132.400 C 281.384 131.520,281.015 130.800,280.827 130.800 C 280.640 130.800,280.366 130.319,280.219 129.732 C 280.071 129.144,279.602 128.220,279.175 127.678 C 278.749 127.136,278.400 126.474,278.400 126.208 C 278.400 125.942,278.040 125.398,277.600 125.000 C 277.160 124.602,276.800 124.028,276.800 123.725 C 276.800 123.423,276.530 123.071,276.200 122.945 C 275.870 122.818,275.600 122.509,275.600 122.257 C 275.599 122.006,275.157 121.260,274.617 120.600 C 274.076 119.940,273.311 118.982,272.917 118.471 C 270.212 114.967,259.611 104.400,258.801 104.400 C 258.602 104.400,258.296 104.153,258.120 103.850 C 257.944 103.548,256.630 102.378,255.200 101.251 C 250.467 97.520,250.780 97.959,251.416 95.956 C 255.276 83.788,251.930 71.347,245.865 75.320 C 245.389 75.632,243.610 76.018,241.912 76.177 C 240.214 76.336,237.874 76.719,236.712 77.028 C 233.855 77.789,223.306 77.792,219.925 77.034 C 218.536 76.722,215.420 76.353,213.000 76.213 C 210.580 76.073,207.430 75.703,206.000 75.390 C 203.084 74.752,197.200 74.419,197.200 74.892 M160.600 299.759 C 157.655 300.596,150.779 303.251,146.800 305.089 C 143.337 306.689,140.065 308.292,139.200 308.812 C 138.870 309.010,137.553 309.763,136.274 310.486 C 132.952 312.363,132.957 312.360,128.997 314.979 C 121.297 320.070,110.461 329.703,105.349 336.000 C 104.724 336.770,104.120 337.490,104.006 337.600 C 102.787 338.781,95.880 348.576,95.144 350.168 C 94.932 350.626,94.334 351.720,93.815 352.600 C 92.287 355.188,88.800 362.383,88.800 362.947 C 88.800 363.095,88.350 363.929,87.800 364.800 C 86.765 366.439,86.484 368.000,87.224 368.000 C 87.457 368.000,87.533 367.775,87.393 367.500 C 87.253 367.225,87.533 367.450,88.015 368.000 C 88.496 368.550,89.035 369.000,89.212 369.000 C 89.389 369.000,89.668 369.135,89.833 369.300 C 89.998 369.465,90.463 369.600,90.867 369.600 C 91.303 369.600,91.600 369.888,91.600 370.313 C 91.600 370.972,92.093 371.155,94.262 371.302 C 94.516 371.319,94.632 371.572,94.520 371.863 C 94.409 372.155,94.651 372.517,95.058 372.667 C 95.466 372.818,95.908 373.102,96.040 373.297 C 96.172 373.493,96.532 373.691,96.840 373.738 C 97.148 373.784,97.625 373.963,97.900 374.135 C 98.175 374.307,98.571 374.342,98.780 374.212 C 98.989 374.083,99.355 374.343,99.594 374.789 C 99.880 375.324,100.432 375.600,101.214 375.600 C 102.133 375.600,102.400 375.780,102.400 376.400 C 102.400 376.977,102.667 377.200,103.357 377.200 C 103.884 377.200,104.412 377.453,104.530 377.762 C 104.649 378.072,105.298 378.446,105.973 378.594 C 106.648 378.742,107.200 379.100,107.200 379.389 C 107.200 380.066,108.094 380.398,109.933 380.406 C 111.037 380.411,111.251 380.510,110.800 380.806 C 110.273 381.152,110.271 381.246,110.789 381.579 C 111.182 381.832,111.480 381.798,111.683 381.479 C 111.854 381.210,111.990 381.182,111.994 381.415 C 111.997 381.643,112.405 381.860,112.900 381.897 C 113.395 381.934,114.089 382.319,114.442 382.754 C 114.833 383.237,115.691 383.595,116.642 383.672 C 117.893 383.775,118.176 383.944,118.076 384.529 C 117.990 385.032,118.177 385.235,118.676 385.183 C 120.534 384.990,121.570 385.212,121.360 385.760 C 121.242 386.067,121.366 386.455,121.635 386.621 C 121.973 386.830,122.025 386.750,121.803 386.362 C 121.544 385.907,121.586 385.896,122.021 386.300 C 122.318 386.575,123.148 386.800,123.866 386.800 C 124.747 386.800,125.306 387.051,125.586 387.573 C 125.863 388.092,126.399 388.335,127.211 388.312 C 127.950 388.291,128.629 388.560,128.953 389.003 C 129.327 389.515,130.059 389.745,131.440 389.786 C 132.934 389.830,133.428 390.004,133.528 390.522 C 133.620 391.002,134.089 391.214,135.129 391.247 C 137.328 391.318,138.977 391.749,138.777 392.200 C 138.674 392.434,139.555 392.650,140.900 392.720 C 142.997 392.829,143.381 393.043,143.267 394.040 C 143.252 394.172,144.514 394.317,146.071 394.363 C 148.754 394.441,150.811 395.250,149.496 395.709 C 149.223 395.805,150.440 395.929,152.200 395.987 C 153.960 396.044,155.799 396.106,156.287 396.125 C 156.774 396.144,157.091 396.242,156.990 396.343 C 156.334 396.999,157.976 397.600,160.425 397.600 C 161.925 397.600,163.266 397.783,163.404 398.007 C 163.542 398.230,163.821 398.311,164.023 398.186 C 164.225 398.061,164.291 398.219,164.169 398.537 C 163.982 399.023,164.805 399.126,169.273 399.175 C 172.250 399.208,174.659 399.403,174.733 399.617 C 174.915 400.137,225.085 400.137,225.267 399.617 C 225.341 399.403,227.750 399.208,230.727 399.175 C 235.195 399.126,236.018 399.023,235.831 398.537 C 235.709 398.219,235.775 398.061,235.977 398.186 C 236.179 398.311,236.458 398.230,236.596 398.007 C 236.734 397.783,238.075 397.600,239.575 397.600 C 242.024 397.600,243.666 396.999,243.010 396.343 C 242.909 396.242,243.226 396.144,243.713 396.125 C 244.201 396.106,246.040 396.044,247.800 395.987 C 249.560 395.929,250.777 395.805,250.504 395.709 C 249.189 395.250,251.246 394.441,253.929 394.363 C 255.486 394.317,256.748 394.172,256.733 394.040 C 256.620 393.051,257.002 392.829,259.005 392.720 C 260.217 392.654,261.172 392.420,261.127 392.200 C 261.034 391.744,262.711 391.317,264.871 391.247 C 265.911 391.214,266.380 391.002,266.472 390.522 C 266.572 390.004,267.066 389.830,268.560 389.786 C 269.941 389.745,270.673 389.515,271.047 389.003 C 271.371 388.560,272.050 388.291,272.789 388.312 C 273.601 388.335,274.137 388.092,274.414 387.573 C 274.694 387.051,275.253 386.800,276.134 386.800 C 276.852 386.800,277.682 386.575,277.979 386.300 C 278.414 385.896,278.456 385.907,278.197 386.362 C 277.975 386.750,278.027 386.830,278.365 386.621 C 278.634 386.455,278.758 386.067,278.640 385.760 C 278.430 385.212,279.466 384.990,281.324 385.183 C 281.823 385.235,282.010 385.032,281.924 384.529 C 281.824 383.944,282.107 383.775,283.358 383.672 C 284.309 383.595,285.167 383.237,285.558 382.754 C 285.911 382.319,286.605 381.934,287.100 381.897 C 287.895 381.838,288.148 381.546,288.073 380.777 C 288.061 380.654,288.805 380.513,289.726 380.463 C 291.967 380.342,292.800 380.055,292.800 379.405 C 292.800 379.107,293.352 378.742,294.027 378.594 C 294.702 378.446,295.351 378.072,295.470 377.762 C 295.588 377.453,296.116 377.200,296.643 377.200 C 297.333 377.200,297.600 376.977,297.600 376.400 C 297.600 375.780,297.867 375.600,298.786 375.600 C 299.568 375.600,300.120 375.324,300.406 374.789 C 300.645 374.343,301.011 374.083,301.220 374.212 C 301.429 374.342,301.825 374.307,302.100 374.135 C 302.375 373.963,302.852 373.784,303.160 373.738 C 303.468 373.691,303.828 373.493,303.960 373.297 C 304.092 373.102,304.534 372.818,304.942 372.667 C 305.349 372.517,305.594 372.162,305.486 371.880 C 305.308 371.415,305.900 371.223,307.900 371.098 C 308.175 371.081,308.400 370.737,308.400 370.333 C 308.400 369.874,308.690 369.600,309.176 369.600 C 309.603 369.600,310.066 369.417,310.204 369.193 C 310.342 368.970,310.614 368.885,310.808 369.005 C 311.001 369.124,311.352 368.864,311.586 368.426 C 311.820 367.988,312.241 367.718,312.520 367.825 C 313.324 368.133,313.240 366.489,312.381 365.074 C 311.955 364.373,311.493 363.530,311.353 363.200 C 309.765 359.453,307.561 354.930,306.185 352.600 C 305.666 351.720,305.068 350.626,304.856 350.168 C 304.087 348.505,297.778 339.582,295.800 337.360 C 290.534 331.443,288.736 329.588,283.198 324.360 C 279.990 321.331,267.796 312.400,266.869 312.400 C 266.699 312.400,266.336 312.176,266.063 311.903 C 264.852 310.692,252.814 304.630,248.200 302.906 C 247.320 302.578,245.430 301.872,244.000 301.339 C 241.351 300.350,237.468 299.200,236.780 299.200 C 236.130 299.200,236.362 301.132,237.200 302.696 C 238.413 304.958,238.413 320.033,237.200 322.296 C 236.760 323.116,236.400 324.302,236.400 324.931 C 236.400 325.560,236.040 326.531,235.600 327.091 C 235.160 327.650,234.800 328.422,234.800 328.805 C 234.800 329.188,234.542 329.717,234.226 329.979 C 233.910 330.241,233.536 330.982,233.394 331.625 C 233.253 332.269,232.927 332.931,232.669 333.098 C 232.411 333.264,231.572 334.299,230.805 335.397 C 228.711 338.397,222.359 344.400,221.280 344.400 C 221.063 344.400,220.788 344.653,220.670 344.962 C 220.551 345.272,219.890 345.649,219.200 345.800 C 218.510 345.951,217.857 346.308,217.747 346.593 C 217.638 346.877,216.987 347.223,216.301 347.360 C 215.614 347.497,214.771 347.853,214.426 348.152 C 214.082 348.450,213.022 348.812,212.072 348.956 C 211.121 349.100,209.917 349.498,209.395 349.840 C 208.612 350.353,206.965 350.462,200.000 350.462 C 193.035 350.462,191.388 350.353,190.605 349.840 C 190.083 349.498,188.879 349.100,187.928 348.956 C 186.978 348.812,185.918 348.450,185.574 348.152 C 185.229 347.853,184.386 347.497,183.699 347.360 C 183.013 347.223,182.362 346.877,182.253 346.593 C 182.143 346.308,181.490 345.951,180.800 345.800 C 180.110 345.649,179.449 345.272,179.330 344.962 C 179.212 344.653,178.865 344.400,178.561 344.400 C 178.256 344.400,177.782 344.040,177.507 343.600 C 177.232 343.160,176.774 342.800,176.488 342.800 C 175.913 342.800,169.600 336.531,169.600 335.960 C 169.600 335.762,169.232 335.195,168.781 334.700 C 168.331 334.205,167.716 333.529,167.413 333.197 C 167.111 332.865,166.742 332.107,166.593 331.513 C 166.444 330.919,166.069 330.223,165.761 329.967 C 165.452 329.711,165.200 329.188,165.200 328.805 C 165.200 328.422,164.840 327.650,164.400 327.091 C 163.960 326.531,163.600 325.517,163.600 324.835 C 163.600 324.154,163.240 322.925,162.800 322.104 C 162.075 320.753,162.000 319.848,162.000 312.504 C 162.000 305.161,162.075 304.256,162.800 302.904 C 164.509 299.716,163.886 298.826,160.600 299.759 "
       stroke="none"
       fill="#336cfc"
       fill-rule="evenodd"
       style="opacity:0.51590106" />
    <path
       id="path4"
       d="M185.200 75.031 C 183.891 75.181,180.169 75.885,176.000 76.771 C 172.682 77.476,166.799 79.386,164.000 80.667 C 163.230 81.020,161.790 81.671,160.800 82.113 C 159.810 82.556,158.730 83.069,158.400 83.253 C 158.070 83.437,157.231 83.845,156.537 84.158 C 155.842 84.472,154.263 85.375,153.029 86.164 C 151.794 86.954,150.698 87.600,150.593 87.600 C 150.182 87.600,140.332 94.907,138.850 96.312 C 130.013 104.687,126.461 108.730,122.783 114.600 C 121.179 117.159,120.906 117.656,119.591 120.400 C 118.906 121.830,118.191 123.291,118.002 123.647 C 117.585 124.434,116.012 129.183,114.904 133.000 C 114.138 135.638,113.501 138.934,112.781 144.000 C 111.990 149.557,112.349 198.800,113.180 198.800 C 113.609 198.800,114.111 198.530,114.296 198.200 C 114.730 197.424,117.407 196.003,119.200 195.596 C 119.970 195.421,121.140 195.086,121.800 194.851 C 122.460 194.615,123.495 194.324,124.100 194.204 L 125.200 193.985 125.200 182.025 C 125.200 167.596,125.025 168.292,128.022 170.786 C 129.314 171.861,130.660 172.979,131.013 173.270 C 131.367 173.562,131.954 174.115,132.317 174.500 C 132.680 174.885,133.180 175.200,133.427 175.200 C 133.674 175.200,134.187 175.544,134.567 175.964 C 134.948 176.384,135.696 176.838,136.229 176.972 C 136.763 177.106,137.200 177.370,137.200 177.559 C 137.200 177.748,137.785 178.140,138.500 178.429 C 139.215 178.718,139.890 179.070,140.000 179.211 C 140.321 179.623,147.963 183.200,148.522 183.200 C 148.802 183.200,149.737 183.560,150.600 184.000 C 151.463 184.440,152.541 184.800,152.996 184.800 C 153.450 184.800,154.183 185.053,154.625 185.363 C 155.067 185.672,156.322 186.055,157.414 186.214 C 158.506 186.372,159.760 186.690,160.200 186.920 C 160.640 187.150,162.800 187.561,165.000 187.833 C 167.200 188.105,170.644 188.542,172.654 188.803 C 175.384 189.159,177.229 189.168,179.954 188.839 C 181.959 188.598,185.265 188.212,187.300 187.983 C 189.335 187.753,191.630 187.313,192.400 187.004 C 193.170 186.695,194.610 186.320,195.600 186.171 C 196.590 186.022,197.755 185.652,198.189 185.350 C 198.623 185.047,199.323 184.800,199.745 184.800 C 200.167 184.800,201.342 184.423,202.356 183.962 C 203.370 183.501,204.920 182.805,205.800 182.417 C 209.107 180.957,211.135 179.882,213.400 178.389 C 214.060 177.954,215.169 177.333,215.863 177.009 C 216.558 176.685,217.188 176.280,217.263 176.110 C 217.339 175.939,218.300 175.175,219.400 174.412 C 222.317 172.387,226.431 168.823,228.647 166.400 C 232.291 162.416,233.197 161.367,233.198 161.129 C 233.199 160.979,233.426 160.619,233.703 160.329 C 234.596 159.390,238.000 154.155,238.000 153.720 C 238.000 153.488,238.258 153.083,238.574 152.821 C 238.890 152.559,239.262 151.830,239.400 151.200 C 239.538 150.570,239.910 149.841,240.226 149.579 C 240.542 149.317,240.800 148.758,240.800 148.338 C 240.800 146.741,242.011 147.206,246.064 150.360 C 248.339 152.130,250.612 153.898,251.116 154.289 C 251.619 154.680,252.789 155.672,253.716 156.494 C 254.642 157.316,255.504 157.991,255.630 157.994 C 255.836 157.999,259.309 160.616,260.814 161.900 C 262.648 163.464,272.005 170.800,272.167 170.800 C 272.272 170.800,272.863 171.267,273.479 171.838 L 274.600 172.876 274.719 183.435 L 274.837 193.994 275.919 194.217 C 280.081 195.075,285.375 197.235,285.757 198.232 C 285.877 198.545,286.350 198.800,286.809 198.800 L 287.642 198.800 287.515 176.100 C 287.379 151.772,287.349 151.358,285.110 143.400 C 282.971 135.795,278.724 126.887,275.004 122.200 C 274.305 121.320,273.566 120.293,273.360 119.917 C 271.974 117.380,260.480 105.932,255.894 102.521 C 255.065 101.904,253.445 100.559,252.294 99.531 L 250.201 97.662 250.760 96.331 C 251.877 93.670,252.614 84.838,252.028 81.131 C 251.183 75.781,249.964 74.467,246.926 75.632 C 246.307 75.870,244.270 76.334,242.400 76.664 C 240.530 76.994,238.190 77.419,237.200 77.608 C 234.891 78.049,222.537 78.037,219.400 77.591 C 218.080 77.403,215.110 77.047,212.800 76.800 C 210.490 76.553,206.890 76.082,204.800 75.754 C 201.146 75.179,188.095 74.697,185.200 75.031 M201.925 75.964 C 202.653 76.181,205.626 76.548,208.530 76.780 C 211.435 77.012,214.439 77.401,215.206 77.645 C 217.161 78.266,235.226 78.581,238.000 78.041 C 239.210 77.806,241.370 77.412,242.800 77.166 C 244.230 76.919,246.126 76.466,247.013 76.159 C 249.272 75.376,249.421 75.417,250.467 77.100 C 251.720 79.115,251.890 92.849,250.689 95.080 C 249.326 97.613,249.552 97.984,255.300 102.667 C 264.113 109.846,273.695 120.086,276.400 125.215 C 276.686 125.757,277.045 126.290,277.198 126.400 C 277.506 126.621,277.993 127.510,279.861 131.266 C 281.895 135.356,282.800 137.418,282.800 137.965 C 282.800 138.246,283.062 138.954,283.382 139.538 C 283.701 140.122,284.134 141.410,284.344 142.400 C 284.553 143.390,284.911 144.740,285.140 145.400 C 286.760 150.081,287.211 156.991,287.205 177.076 C 287.200 197.949,287.243 197.491,285.400 196.351 C 284.740 195.943,283.750 195.406,283.200 195.159 C 282.650 194.912,281.722 194.460,281.138 194.155 C 280.554 193.850,279.294 193.597,278.338 193.594 C 275.544 193.584,275.663 194.054,275.525 182.477 C 275.438 175.198,275.261 171.882,274.946 171.685 C 274.696 171.528,273.796 170.818,272.946 170.106 C 271.633 169.007,262.511 161.822,259.710 159.680 C 259.221 159.306,258.141 158.404,257.310 157.676 C 256.480 156.948,255.305 156.088,254.700 155.766 C 254.095 155.443,253.600 155.004,253.600 154.790 C 253.600 154.575,253.370 154.400,253.089 154.400 C 252.808 154.400,252.280 154.085,251.916 153.700 C 251.553 153.315,250.748 152.610,250.128 152.132 C 249.507 151.655,247.641 150.215,245.979 148.932 C 241.166 145.217,241.406 145.274,240.010 147.498 C 239.353 148.544,238.812 149.687,238.808 150.039 C 238.803 150.390,238.440 151.093,238.000 151.600 C 237.560 152.107,237.200 152.752,237.200 153.033 C 237.200 153.313,236.953 153.790,236.652 154.091 C 236.350 154.392,235.765 155.239,235.352 155.972 C 233.856 158.623,233.962 158.475,231.794 160.921 C 231.247 161.537,230.800 162.182,230.800 162.355 C 230.800 162.909,223.731 169.733,221.022 171.795 C 219.580 172.892,218.400 173.927,218.400 174.095 C 218.400 174.263,218.200 174.400,217.956 174.400 C 217.366 174.400,213.600 176.851,213.600 177.236 C 213.600 177.401,213.072 177.652,212.428 177.794 C 211.783 177.936,211.041 178.310,210.779 178.626 C 210.517 178.942,210.078 179.200,209.805 179.200 C 209.532 179.200,208.879 179.537,208.354 179.948 C 207.829 180.359,206.827 180.821,206.128 180.974 C 205.428 181.126,204.641 181.510,204.379 181.826 C 204.117 182.142,203.606 182.400,203.245 182.400 C 202.884 182.400,201.916 182.760,201.096 183.200 C 200.275 183.640,199.197 184.006,198.701 184.014 C 198.206 184.021,197.080 184.375,196.200 184.800 C 195.320 185.225,194.038 185.579,193.352 185.586 C 192.666 185.594,190.956 185.974,189.552 186.431 C 185.684 187.690,167.486 187.694,163.648 186.436 C 162.244 185.976,160.509 185.600,159.792 185.600 C 159.074 185.600,157.703 185.244,156.744 184.809 C 155.785 184.374,154.594 184.014,154.099 184.009 C 153.603 184.004,152.525 183.640,151.704 183.200 C 150.884 182.760,149.899 182.400,149.516 182.400 C 149.133 182.400,148.230 182.041,147.510 181.601 C 146.789 181.162,145.907 180.802,145.549 180.801 C 145.191 180.801,144.678 180.535,144.409 180.211 C 144.140 179.886,143.308 179.506,142.560 179.366 C 141.812 179.226,141.200 178.953,141.200 178.761 C 141.200 178.568,140.615 178.132,139.900 177.791 C 137.592 176.691,136.252 175.893,135.442 175.139 C 135.006 174.732,134.503 174.400,134.325 174.400 C 134.146 174.400,133.663 174.085,133.251 173.700 C 132.839 173.315,131.717 172.370,130.758 171.600 C 129.798 170.830,128.332 169.507,127.500 168.660 C 124.580 165.690,124.400 166.441,124.400 181.603 L 124.400 193.107 123.500 193.348 C 123.005 193.481,121.998 193.592,121.262 193.595 C 120.526 193.598,119.446 193.850,118.862 194.155 C 118.278 194.460,117.350 194.912,116.800 195.159 C 116.250 195.406,115.260 195.943,114.600 196.351 C 113.940 196.759,113.265 197.017,113.100 196.923 C 112.633 196.658,112.752 147.808,113.227 144.800 C 113.453 143.370,113.883 140.553,114.183 138.539 C 114.484 136.526,114.905 134.546,115.118 134.139 C 115.332 133.733,115.635 132.590,115.792 131.600 C 115.949 130.610,116.301 129.440,116.575 129.000 C 116.849 128.560,117.198 127.660,117.351 127.000 C 117.503 126.340,117.882 125.260,118.193 124.600 C 120.604 119.480,121.344 118.002,122.196 116.600 C 122.731 115.720,123.373 114.505,123.623 113.900 C 123.874 113.295,124.246 112.800,124.452 112.800 C 124.657 112.800,124.941 112.485,125.083 112.100 C 125.936 109.789,136.261 98.841,141.025 95.196 C 142.316 94.208,143.680 93.130,144.057 92.800 C 146.179 90.943,154.790 85.461,157.216 84.423 C 157.757 84.191,158.470 83.828,158.800 83.616 C 159.130 83.404,160.480 82.761,161.800 82.188 C 163.120 81.615,164.678 80.888,165.262 80.573 C 165.846 80.258,166.656 79.994,167.062 79.986 C 167.468 79.979,168.520 79.625,169.400 79.200 C 170.280 78.775,171.270 78.424,171.600 78.419 C 171.930 78.415,173.370 78.063,174.800 77.637 C 176.230 77.212,178.660 76.652,180.200 76.394 C 181.740 76.136,183.810 75.773,184.800 75.587 C 187.096 75.155,200.174 75.443,201.925 75.964 M162.000 200.189 C 161.450 200.506,160.640 200.943,160.200 201.159 C 151.844 205.273,155.998 218.992,165.600 218.992 C 175.202 218.992,179.356 205.273,171.000 201.159 C 170.560 200.943,169.750 200.506,169.200 200.189 C 168.609 199.848,167.136 199.612,165.600 199.612 C 164.064 199.612,162.591 199.848,162.000 200.189 M230.800 200.189 C 230.250 200.506,229.440 200.943,229.000 201.159 C 220.644 205.273,224.798 218.992,234.400 218.992 C 244.002 218.992,248.156 205.273,239.800 201.159 C 239.360 200.943,238.550 200.506,238.000 200.189 C 237.409 199.848,235.936 199.612,234.400 199.612 C 232.864 199.612,231.391 199.848,230.800 200.189 M168.791 201.359 C 171.378 202.558,172.651 203.736,173.219 205.459 C 173.463 206.196,173.828 206.800,174.031 206.800 C 176.127 206.800,172.349 216.746,170.228 216.814 C 169.993 216.821,169.080 217.175,168.200 217.600 C 167.320 218.025,166.150 218.373,165.600 218.373 C 165.050 218.373,163.880 218.025,163.000 217.600 C 162.120 217.175,161.177 216.821,160.903 216.814 C 160.630 216.806,160.182 216.440,159.907 216.000 C 159.632 215.560,159.181 215.200,158.904 215.200 C 158.627 215.200,158.400 214.968,158.400 214.685 C 158.400 214.401,158.040 213.463,157.600 212.600 C 154.263 206.054,162.048 198.235,168.791 201.359 M237.594 201.361 C 242.265 203.525,244.437 208.604,242.400 212.600 C 241.960 213.463,241.600 214.401,241.600 214.685 C 241.600 214.968,241.373 215.200,241.096 215.200 C 240.819 215.200,240.368 215.560,240.093 216.000 C 239.818 216.440,239.370 216.806,239.097 216.814 C 238.823 216.821,237.880 217.175,237.000 217.600 C 236.120 218.025,234.950 218.373,234.400 218.373 C 233.850 218.373,232.680 218.025,231.800 217.600 C 230.920 217.175,230.007 216.821,229.772 216.814 C 227.651 216.746,223.873 206.800,225.969 206.800 C 226.172 206.800,226.537 206.196,226.781 205.459 C 228.069 201.554,233.538 199.482,237.594 201.361 "
       stroke="none"
       fill="#877472"
       fill-rule="evenodd" />
  </g>
</svg>
